<?xml version="1.0" encoding="utf-8"?>
<!DOCTYPE svg PUBLIC "-//W3C//DTD SVG 1.1//EN" "http://www.w3.org/Graphics/SVG/1.1/DTD/svg11.dtd">
<svg style="width:308px;height:308px;" version="1.1" id="图形" xmlns="http://www.w3.org/2000/svg" xmlns:xlink="http://www.w3.org/1999/xlink" x="0px" y="0px" width="1024px" height="1024px" viewBox="0 0 1024 1024" enable-background="new 0 0 1024 1024" xml:space="preserve">
  <path class="svgpath" data-index="path_0" fill="#51c288" d="M376.768 631.296 226.496 481.088 181.248 526.336 331.52 676.544 330.496 677.568 375.744 722.816 792.192 306.304 746.944 261.056Z" />
<path class="svgpath" data-index="path_1" fill="#51c288" d="M863.36 39.744 129.472 39.744c-53.504 0-97.088 43.52-97.088 97.088l0 733.888c0 53.504 43.584 97.088 97.088 97.088L863.36 967.808c53.504 0 97.088-43.584 97.088-97.088L960.448 136.768C960.448 83.264 916.864 39.744 863.36 39.744zM896.448 870.656c0 18.24-14.784 33.088-33.088 33.088L129.472 903.744c-18.24 0-33.088-14.784-33.088-33.088L96.384 136.768c0-18.24 14.784-33.088 33.088-33.088L863.36 103.68c18.24 0 33.088 14.848 33.088 33.088L896.448 870.656z" />

</svg>
