<?xml version="1.0" encoding="utf-8"?>
<!DOCTYPE svg PUBLIC "-//W3C//DTD SVG 1.1//EN" "http://www.w3.org/Graphics/SVG/1.1/DTD/svg11.dtd">
<svg style="width:308px;height:308px;" version="1.1" id="图形" xmlns="http://www.w3.org/2000/svg" xmlns:xlink="http://www.w3.org/1999/xlink" x="0px" y="0px" width="1024px" height="1024px" viewBox="0 0 1024 1024" enable-background="new 0 0 1024 1024" xml:space="preserve">
  <path class="svgpath" data-index="path_0" fill="#ffffff" d="M510.099209 178.309058c-138.999774 0-251.6576 110.293989-251.6576 246.382457 0 136.073118 112.657826 246.38041 251.6576 246.38041 139.003867 0 251.661693-110.307292 251.661693-246.38041C761.760902 288.603047 649.103076 178.309058 510.099209 178.309058L510.099209 178.309058zM219.507878 519.266497 219.507878 291.800879c-3.185552 0-6.344498 0.12996-9.464559 0.378623C261.613858 180.226734 376.472815 102.257965 510.138094 102.257965c133.662209 0 248.52526 77.968769 300.091706 189.921537-3.120061-0.248663-6.274914-0.378623-9.463536-0.378623l0 227.465618c64.189951 0 116.259864-50.92688 116.259864-113.729228 0-42.654472-24.019043-79.818907-59.533908-99.285261C807.513946 165.476799 671.07346 64.363913 510.138094 64.363913c-160.933319 0-297.366641 101.104699-347.349009 241.874793-35.527145 19.463284-59.538001 56.635905-59.538001 99.29447C103.251084 468.339618 155.283134 519.266497 219.507878 519.266497L219.507878 519.266497zM761.230829 649.663336c-65.760726 60.08547-154.046468 96.875374-251.130597 96.875374-96.90198 0-185.040367-36.654828-250.761184-96.540753C141.71614 709.253526 64.495408 814.71751 64.495408 957.99061l894.267287 0C958.762695 814.453497 880.097054 708.857507 761.230829 649.663336L761.230829 649.663336zM761.230829 649.663336" />

</svg>
