<?xml version="1.0" encoding="utf-8"?>
<!DOCTYPE svg PUBLIC "-//W3C//DTD SVG 1.1//EN" "http://www.w3.org/Graphics/SVG/1.1/DTD/svg11.dtd">
<svg style="width:308px;height:308px;" version="1.1" id="图形" xmlns="http://www.w3.org/2000/svg" xmlns:xlink="http://www.w3.org/1999/xlink" x="0px" y="0px" width="1024px" height="1024px" viewBox="0 0 1024 1024" enable-background="new 0 0 1024 1024" xml:space="preserve">
  <path class="svgpath" data-index="path_0" fill="#d1d1d1" d="M608 780c-17.696 0-32-14.304-32-32l0-352c0-17.696 14.304-32 32-32s32 14.304 32 32l0 352c0 17.696-14.304 32-32 32zM416 780c-17.696 0-32-14.304-32-32l0-352c0-17.696 14.304-32 32-32s32 14.304 32 32l0 352c0 17.696-14.304 32-32 32zM928 236l-160 0 0-64c0-52.928-42.72-96-95.264-96l-320.736 0c-52.928 0-96 43.072-96 96l0 64-160 0c-17.696 0-32 14.304-32 32s14.304 32 32 32l832 0c17.696 0 32-14.304 32-32s-14.304-32-32-32zM320 172c0-17.632 14.368-32 32-32l320.736 0c17.536 0 31.264 14.048 31.264 32l0 64-384 0 0-64zM736.128 972l-448.064 0c-52.928 0-96-43.072-96-96l0-480.48c0-17.664 14.336-32 32-32s32 14.336 32 32l0 480.48c0 17.664 14.368 32 32 32l448.064 0c17.664 0 32-14.336 32-32l0-479.168c0-17.664 14.304-32 32-32s32 14.336 32 32l0 479.168c0 52.928-43.072 96-96 96z" />

</svg>
