<?xml version="1.0" encoding="utf-8"?>
<!DOCTYPE svg PUBLIC "-//W3C//DTD SVG 1.1//EN" "http://www.w3.org/Graphics/SVG/1.1/DTD/svg11.dtd">
<svg style="width:308px;height:308px;" version="1.1" id="图形" xmlns="http://www.w3.org/2000/svg" xmlns:xlink="http://www.w3.org/1999/xlink" x="0px" y="0px" width="1024px" height="1024px" viewBox="0 0 1024 1024" enable-background="new 0 0 1024 1024" xml:space="preserve">
  <path class="svgpath" data-index="path_0" fill="#56abe4" d="M960 677.696 960 237.056c0-95.04-77.056-172.096-172.16-172.096L237.056 64.96c-95.04 0-172.096 77.056-172.096 172.096l0 550.912C64.896 882.88 142.016 960 237.056 960l550.784 0c84.8 0 155.264-61.184 169.408-141.76-45.504-19.648-243.456-105.152-346.432-154.432-78.464 94.976-160.512 152-284.352 152-123.776 0-206.464-76.096-196.48-169.472C136.512 585.024 178.56 484.928 360.96 502.144c96.128 9.088 140.224 27.008 218.688 52.864 20.16-37.184 37.12-78.144 49.792-121.728L281.856 433.28 281.856 398.848l171.968 0L453.824 336.896 243.968 336.896 243.968 299.008l209.856 0L453.824 209.728c0 0 1.984-14.016 17.344-14.016l86.08 0 0 103.232 223.808 0 0 37.888L557.248 336.832l0 61.952 182.464 0c-16.768 68.352-42.112 131.008-74.112 185.984C718.72 603.968 960 677.696 960 677.696L960 677.696 960 677.696zM312.768 756.864c-130.816 0-151.488-82.56-144.576-117.056C175.04 605.44 212.992 560.64 285.696 560.64c83.584 0 158.336 21.376 248.256 65.152C470.912 707.968 393.344 756.864 312.768 756.864L312.768 756.864z" />

</svg>
