<?xml version="1.0" encoding="utf-8"?>
<!DOCTYPE svg PUBLIC "-//W3C//DTD SVG 1.1//EN" "http://www.w3.org/Graphics/SVG/1.1/DTD/svg11.dtd">
<svg style="width:308px;height:308px;" version="1.1" id="图形" xmlns="http://www.w3.org/2000/svg" xmlns:xlink="http://www.w3.org/1999/xlink" x="0px" y="0px" width="1024px" height="1024px" viewBox="0 0 1024 1024" enable-background="new 0 0 1024 1024" xml:space="preserve">
  <path class="svgpath" data-index="path_0" fill="#ffffff" d="M103.882975 448.12625c-21.534456 0-38.995129 17.472953-38.995129 39.022759l0 49.700959c0 21.526269 17.45658 39.022759 38.995129 39.022759l816.235073 0c21.534456 0 38.995129-17.472953 38.995129-39.022759l0-49.700959c0-21.531386-17.45658-39.022759-38.995129-39.022759L103.882975 448.12625z" />
<path class="svgpath" data-index="path_1" fill="#ffffff" d="M577.325821 103.882975c0-21.534456-17.472953-38.995129-39.022759-38.995129l-49.700959 0c-21.526269 0-39.022759 17.45658-39.022759 38.995129l0 816.235073c0 21.534456 17.472953 38.995129 39.022759 38.995129l49.700959 0c21.531386 0 39.022759-17.45658 39.022759-38.995129L577.325821 103.882975z" />

</svg>
