<?xml version="1.0" encoding="utf-8"?>
<!DOCTYPE svg PUBLIC "-//W3C//DTD SVG 1.1//EN" "http://www.w3.org/Graphics/SVG/1.1/DTD/svg11.dtd">
<svg style="width:308px;height:308px;" version="1.1" id="图形" xmlns="http://www.w3.org/2000/svg" xmlns:xlink="http://www.w3.org/1999/xlink" x="0px" y="0px" width="1024px" height="1024px" viewBox="0 0 1024 1024" enable-background="new 0 0 1024 1024" xml:space="preserve">
  <path class="svgpath" data-index="path_0" fill="#d1d1d1" d="M723.704997 533.09448c0.498687-0.964535 1.307534-1.772165 1.74419-2.76954 8.561613-17.812873 5.758016-39.606732-9.4033-53.931226L372.315205 151.287185c-18.743351-17.718001-48.291192-16.876314-66.042034 1.839062-17.716785 18.743351-16.904289 48.291192 1.839062 66.040818l308.415095 291.757717-307.198784 296.086567c-18.558472 17.907746-19.119191 47.455587-1.216311 66.042034 9.155172 9.531012 21.390044 14.291653 33.628564 14.291653 11.674152 0 23.351953-4.356826 32.41347-13.075342l340.614494-328.28475c0.655592-0.650726 0.902503-1.554445 1.558094-2.238012 0.498687-0.470712 1.026566-0.812496 1.525254-1.311183C720.498802 539.664992 721.899992 536.272701 723.704997 533.09448L723.704997 533.09448zM723.704997 533.09448" />

</svg>
